<?xml version="1.0" encoding="UTF-8" standalone="no"?>
<svg width="1024" height="1024" xmlns="http://www.w3.org/2000/svg" xmlns:svg="http://www.w3.org/2000/svg" xmlns:rdf="http://www.w3.org/1999/02/22-rdf-syntax-ns#" xmlns:cc="http://creativecommons.org/ns#" xmlns:dc="http://purl.org/dc/elements/1.1/">
	<title>Modularis Core icon</title>
	<g fill="none" stroke-linecap="round" stroke-linejoin="round">
		<path stroke="#FFFFFF" stroke-width="16" d="M 160 892 160 128 512 512 864 128 864 892"/>
		<g transform="translate(512 512)">
			<circle fill="#000000" cx="0" cy="0" r="256"/>
			<path stroke="#00FF00" stroke-width="32" d="m -256 0 256 -128 v 256 l 256 -128"/>
			<circle stroke="#FF0000" stroke-width="64" cx="0" cy="0" r="256"/>
		</g>
		<g transform="translate(160 128)">
			<rect fill="#000000" x="-96" y="-64" width="192" height="128"/>
			<path stroke="#00FF00" stroke-width="8" d="m -96 0 c 0 0 16 -32 48 -32 32 0 64 64 96 64 32 0 48 -32 48 -32"/>
			<rect stroke="#808080" stroke-width="16" x="-96" y="-64" width="192" height="128"/>
		</g>
		<g transform="translate(864 128)">
			<rect fill="#000000" x="-96" y="-64" width="192" height="128"/>
			<path stroke="#00FF00" stroke-width="8" d="m -96 32 h 48 v -64 h 96 v 64 h 48"/>
			<rect stroke="#808080" stroke-width="16" x="-96" y="-64" width="192" height="128"/>
		</g>
		<g transform="translate(160 896)">
			<rect fill="#000000" x="-96" y="-64" width="192" height="128"/>
			<g stroke="#00FF00" stroke-width="8" transform="translate(0 24)">
				<path d="m -92 0 h 16"/>
				<path d="m -68 -16 h 16"/>
				<path d="m -44 -24 h 16"/>
				<path d="m -20 -40 h 16"/>
				<path d="m 4 -56 h 16"/>
				<path d="m 28 -24 h 16"/>
				<path d="m 52 -16 h 16"/>
				<path d="m 76 -8 h 16"/>
			</g>
			<path stroke="#FFFFFF" stroke-width="8" d="M -64 -64 V 64"/>
			<rect stroke="#808080" stroke-width="16" x="-96" y="-64" width="192" height="128"/>
		</g>
		<g transform="translate(864 896)">
			<rect fill="#000000" x="-96" y="-64" width="192" height="128"/>
			<path stroke="#FFFFFF" stroke-width="8" d="M -96 -36 H 96"/>
			<g stroke="#00FF00" stroke-width="8">
				<path d="m -80 -48 h 8"/>
				<g transform="translate(-80 -36)">
					<path d="m 0 0 h 8"/>
					<path d="m 48 0 h 8"/>
					<path d="m 96 0 h 8"/>
				</g>
				<path d="m -80 -24 h 8"/>
				<g transform="translate(-80 -12)">
					<path d="m 0 0 h 8"/>
					<path d="m 48 0 h 8"/>
					<path d="m 96 0 h 8"/>
				</g>
				<path d="m -80 0 h 8"/>
				<path d="m -80 12 h 8"/>
				<g transform="translate(-80 24)">
					<path d="m 0 0 h 8"/>
					<path d="m 48 0 h 8"/>
					<path d="m 96 0 h 8"/>
				</g>
				<path d="m -80 36 h 8"/>
			</g>
			<rect stroke="#808080" stroke-width="16" x="-96" y="-64" width="192" height="128"/>
		</g>
	</g>
	<metadata>
		<rdf:RDF>
			<cc:Work rdf:about="">
				<dc:title>Modularis Core icon</dc:title>
				<dc:date>2024-08-11</dc:date>
				<dc:creator><cc:Agent><dc:title>Серый MLGamer</dc:title></cc:Agent></dc:creator>
				<dc:rights><cc:Agent><dc:title>2023-2024 Серый MLGamer &lt;Seriy-MLGamer@yandex.ru&gt;</dc:title></cc:Agent></dc:rights>
				<dc:language>English</dc:language>
				<cc:license rdf:resource="http://creativecommons.org/licenses/by-sa/4.0/"/>
			</cc:Work>
			<cc:License rdf:about="http://creativecommons.org/licenses/by-sa/4.0/">
				<cc:permits rdf:resource="http://creativecommons.org/ns#Reproduction"/>
				<cc:permits rdf:resource="http://creativecommons.org/ns#Distribution"/>
				<cc:requires rdf:resource="http://creativecommons.org/ns#Notice"/>
				<cc:requires rdf:resource="http://creativecommons.org/ns#Attribution"/>
				<cc:permits rdf:resource="http://creativecommons.org/ns#DerivativeWorks"/>
				<cc:requires rdf:resource="http://creativecommons.org/ns#ShareAlike"/>
			</cc:License>
		</rdf:RDF>
	</metadata>
</svg>