<?xml version="1.0" encoding="UTF-8" standalone="no"?>
<svg width="5120" height="2048" xmlns="http://www.w3.org/2000/svg" xmlns:svg="http://www.w3.org/2000/svg" xmlns:rdf="http://www.w3.org/1999/02/22-rdf-syntax-ns#" xmlns:cc="http://creativecommons.org/ns#" xmlns:dc="http://purl.org/dc/elements/1.1/">
	<title>Полный логотип Модулярис Ядро</title>
	<g fill="none" stroke-linecap="round" stroke-linejoin="round">
		<g>
			<path stroke="#FFFFFF" stroke-width="16" d="M 160 892 160 128 512 512 864 128 864 892"/>
			<g transform="translate(512 512)">
				<circle fill="#000000" cx="0" cy="0" r="256"/>
				<path stroke="#00FF00" stroke-width="32" d="m -256 0 256 -128 v 256 l 256 -128"/>
				<circle stroke="#FF0000" stroke-width="64" cx="0" cy="0" r="256"/>
			</g>
			<g transform="translate(160 128)">
				<rect fill="#000000" x="-96" y="-64" width="192" height="128"/>
				<path stroke="#00FF00" stroke-width="8" d="m -96 0 c 0 0 16 -32 48 -32 32 0 64 64 96 64 32 0 48 -32 48 -32"/>
				<rect stroke="#808080" stroke-width="16" x="-96" y="-64" width="192" height="128"/>
			</g>
			<g transform="translate(864 128)">
				<rect fill="#000000" x="-96" y="-64" width="192" height="128"/>
				<path stroke="#00FF00" stroke-width="8" d="m -96 32 h 48 v -64 h 96 v 64 h 48"/>
				<rect stroke="#808080" stroke-width="16" x="-96" y="-64" width="192" height="128"/>
			</g>
			<g transform="translate(160 896)">
				<rect fill="#000000" x="-96" y="-64" width="192" height="128"/>
				<g stroke="#00FF00" stroke-width="8" transform="translate(0 24)">
					<path d="m -92 0 h 16"/>
					<path d="m -68 -16 h 16"/>
					<path d="m -44 -24 h 16"/>
					<path d="m -20 -40 h 16"/>
					<path d="m 4 -56 h 16"/>
					<path d="m 28 -24 h 16"/>
					<path d="m 52 -16 h 16"/>
					<path d="m 76 -8 h 16"/>
				</g>
				<path stroke="#FFFFFF" stroke-width="8" d="M -64 -64 V 64"/>
				<rect stroke="#808080" stroke-width="16" x="-96" y="-64" width="192" height="128"/>
			</g>
			<g transform="translate(864 896)">
				<rect fill="#000000" x="-96" y="-64" width="192" height="128"/>
				<path stroke="#FFFFFF" stroke-width="8" d="M -96 -36 H 96"/>
				<g stroke="#00FF00" stroke-width="8">
					<path d="m -80 -48 h 8"/>
					<g transform="translate(-80 -36)">
						<path d="m 0 0 h 8"/>
						<path d="m 48 0 h 8"/>
						<path d="m 96 0 h 8"/>
					</g>
					<path d="m -80 -24 h 8"/>
					<g transform="translate(-80 -12)">
						<path d="m 0 0 h 8"/>
						<path d="m 48 0 h 8"/>
						<path d="m 96 0 h 8"/>
					</g>
					<path d="m -80 0 h 8"/>
					<path d="m -80 12 h 8"/>
					<g transform="translate(-80 24)">
						<path d="m 0 0 h 8"/>
						<path d="m 48 0 h 8"/>
						<path d="m 96 0 h 8"/>
					</g>
					<path d="m -80 36 h 8"/>
				</g>
				<rect stroke="#808080" stroke-width="16" x="-96" y="-64" width="192" height="128"/>
			</g>
		</g>
		<g stroke-width="64" transform="translate(1152 256)">
			<g stroke="#00FF00">
				<path d="m 0 512 512 -512 v 512 l 512 -512 v 512"/>
				<path d="m 1152 256 h 256 v 256 h -256 z"/>
				<path d="m 1792 0 v 512 h -256 l 256 -256"/>
				<path d="m 1920 256 v 512 -256 l 256 -256"/>
				<path d="m 2176 512 256 -256 v 256"/>
				<path d="m 2560 512 128 -128 h -128 l 128 -128 v 256"/>
				<path d="m 2816 768 v -512 h 256 l -256 256"/>
				<path d="m 3200 256 v 256 l 256 -256 v 256"/>
				<path d="m 3840 512 h -256 l 256 -256"/>
			</g>
			<g stroke="#FF0000" transform="translate(0 768)">
				<path d="m 0 512 256 -256 h -256 l 256 -256 v 512"/>
				<path d="m 640 0 v 512 h -256 l 256 -256"/>
				<path d="m 768 768 v -512 h 256 l -256 256"/>
				<path d="m 1152 256 h 256 v 256 h -256 z"/>
			</g>
		</g>
	</g>
	<metadata>
		<rdf:RDF>
			<cc:Work rdf:about="">
				<dc:title>Полный логотип Модулярис Ядро</dc:title>
				<dc:date>2024-08-11</dc:date>
				<dc:creator><cc:Agent><dc:title>Серый MLGamer</dc:title></cc:Agent></dc:creator>
				<dc:rights><cc:Agent><dc:title>2023-2024 Серый MLGamer &lt;Seriy-MLGamer@yandex.ru&gt;</dc:title></cc:Agent></dc:rights>
				<dc:language>Russian</dc:language>
				<cc:license rdf:resource="http://creativecommons.org/licenses/by-sa/4.0/"/>
			</cc:Work>
			<cc:License rdf:about="http://creativecommons.org/licenses/by-sa/4.0/">
				<cc:permits rdf:resource="http://creativecommons.org/ns#Reproduction"/>
				<cc:permits rdf:resource="http://creativecommons.org/ns#Distribution"/>
				<cc:requires rdf:resource="http://creativecommons.org/ns#Notice"/>
				<cc:requires rdf:resource="http://creativecommons.org/ns#Attribution"/>
				<cc:permits rdf:resource="http://creativecommons.org/ns#DerivativeWorks"/>
				<cc:requires rdf:resource="http://creativecommons.org/ns#ShareAlike"/>
			</cc:License>
		</rdf:RDF>
	</metadata>
</svg>